<svg xmlns="http://www.w3.org/2000/svg" version="1.1" xmlns:xlink="http://www.w3.org/1999/xlink" width="512" height="512" x="0" y="0" viewBox="0 0 64 64" style="enable-background:new 0 0 512 512" xml:space="preserve" class=""><g><g fill="#000"><path fill-rule="evenodd" d="M26 2c-7.732 0-14 6.268-14 14s6.268 14 14 14 14-6.268 14-14S33.732 2 26 2zM16 16c0-5.523 4.477-10 10-10s10 4.477 10 10-4.477 10-10 10-10-4.477-10-10z" clip-rule="evenodd" fill="#AEBAC1" opacity="1" data-original="#AEBAC1" class=""></path><path d="M51 38a2 2 0 0 1-2-2v-7h-7a2 2 0 1 1 0-4h7v-7a2 2 0 1 1 4 0v7h7a2 2 0 1 1 0 4h-7v7a2 2 0 0 1-2 2zM2 51.53C2 41.847 9.848 34 19.53 34h12.94C42.153 34 50 41.848 50 51.53 50 57.311 45.312 62 39.53 62H31a2 2 0 1 1 0-4h8.53A6.47 6.47 0 0 0 46 51.53C46 44.056 39.943 38 32.47 38H19.53C12.056 38 6 44.057 6 51.53A6.47 6.47 0 0 0 12.47 58H21a2 2 0 1 1 0 4h-8.53C6.689 62 2 57.312 2 51.53z" fill="#AEBAC1" opacity="1" data-original="#AEBAC1" class=""></path></g></g></svg>