<svg xmlns="http://www.w3.org/2000/svg" version="1.1" xmlns:xlink="http://www.w3.org/1999/xlink" width="512" height="512" x="0" y="0" viewBox="0 0 68 68" style="enable-background:new 0 0 512 512" xml:space="preserve" class=""><g><path fill="#488ff7" d="M65.835 23.304v29c0 2.58-2.09 4.67-4.67 4.67h-35.59c-2.57 0-4.66-2.09-4.66-4.67v-29c0-2.58 2.09-4.67 4.66-4.67h35.59c2.58 0 4.67 2.09 4.67 4.67z" opacity="1" data-original="#488ff7"></path><path fill="#304056" d="m58.625 6.864-1.66 24.58a3.125 3.125 0 0 1-3.33 2.91l-27.81-1.88a3.137 3.137 0 0 1-2.91-3.33l1.67-24.58c.11-1.71 1.6-3.02 3.32-2.9l27.82 1.88c1.72.12 3.01 1.61 2.9 3.32z" opacity="1" data-original="#304056"></path><path fill="#b9b9b9" d="m45.505 37.594-27.61 3.87c-1.71.24-3.29-.95-3.53-2.66l-3.42-24.4c-.23-1.7.96-3.28 2.66-3.52l27.61-3.87c1.71-.24 3.28.95 3.52 2.66l3.42 24.39c.24 1.71-.94 3.29-2.65 3.53z" opacity="1" data-original="#b9b9b9"></path><path fill="#dbdbdb" d="M53.425 41.844a3.129 3.129 0 0 1-3.01 3.24l-27.87.94a3.119 3.119 0 0 1-3.22-3.02l-.84-24.62c-.05-1.72 1.3-3.17 3.02-3.22l27.86-.95c1.73-.05 3.17 1.3 3.23 3.02z" opacity="1" data-original="#dbdbdb"></path><path d="M28.263 19.434a.5.5 0 0 1-.016-1l20.36-.689a.501.501 0 0 1 .033 1l-20.36.689h-.017zM22.517 19.628a.5.5 0 0 1-.016-1l2.683-.09a.516.516 0 0 1 .517.483.501.501 0 0 1-.484.516l-2.683.09h-.017zM38.705 24.192a.5.5 0 0 1-.017-1l9.918-.335a.49.49 0 0 1 .517.484.501.501 0 0 1-.484.516l-9.918.335h-.016zM22.517 24.74a.5.5 0 0 1-.016-1l13.44-.454a.51.51 0 0 1 .516.484.501.501 0 0 1-.484.516l-13.44.454h-.016z" fill="#000000" opacity="1" data-original="#000000"></path><path fill="#488ff7" d="M65.835 32.674v29.01c0 2.57-2.09 4.66-4.67 4.66H6.825c-2.57 0-4.66-2.09-4.66-4.66v-37.84c0-2.58 2.09-4.67 4.66-4.67h8.48c1.39 0 2.71.62 3.59 1.69l4.54 5.46a4.65 4.65 0 0 0 3.59 1.69h34.14c2.58 0 4.67 2.09 4.67 4.66z" opacity="1" data-original="#488ff7"></path><path fill="#ffffff" d="M59.705 51.594v7.83c0 .87-.71 1.58-1.58 1.58h-20.59c-.87 0-1.58-.71-1.58-1.58v-7.83c0-.88.71-1.59 1.58-1.59h20.59c.87 0 1.58.71 1.58 1.59z" opacity="1" data-original="#ffffff"></path><path d="M56.372 53.986h-2.948a.5.5 0 1 1 0-1h2.948a.5.5 0 1 1 0 1zM51.579 53.986h-6.563a.5.5 0 1 1 0-1h6.563a.5.5 0 1 1 0 1zM42.766 53.986H39.29a.5.5 0 1 1 0-1h3.477a.5.5 0 1 1 0 1zM51.141 58.028H47.83a.5.5 0 1 1 0-1h3.311a.5.5 0 1 1 0 1zM45.215 58.028H39.29a.5.5 0 1 1 0-1h5.926a.5.5 0 1 1 0 1z" fill="#000000" opacity="1" data-original="#000000"></path></g></svg>