<svg xmlns="http://www.w3.org/2000/svg" version="1.1" xmlns:xlink="http://www.w3.org/1999/xlink" width="512" height="512" x="0" y="0" viewBox="0 0 512 512" style="enable-background:new 0 0 512 512" xml:space="preserve" class=""><g><circle cx="256" cy="256" r="245" fill="#ffe177" opacity="0" data-original="#ffe177" class=""></circle><path fill="#fe860a" d="M400.79 245.977H293v28.479c0 27.792-22.61 50.401-50.401 50.401h-93.1L123 351.356v27.266c0 28.388 23.013 51.401 51.401 51.401h88.537v25.151c0 6.978 8.437 10.473 13.372 5.539l30.69-30.69h58.599c28.388 0 51.401-23.013 51.401-51.401v-95.198c0-14.768-6.237-28.071-16.21-37.447z" opacity="1" data-original="#fe860a" class=""></path><path fill="#f46700" d="M171 378.622v-53.764h-21.501L123 351.356v27.266c0 28.388 23.013 51.401 51.401 51.401h48c-28.388 0-51.401-23.013-51.401-51.401z" opacity="1" data-original="#f46700" class=""></path><path fill="#ffffff" d="M181.979 324.857a19.947 19.947 0 0 0-.979 6.166c0 11.046 8.954 20 20 20s20-8.954 20-20c0-2.153-.349-4.222-.979-6.166zM276.174 312.005c-6.877 6.155-15.447 10.446-24.917 12.093a19.913 19.913 0 0 0-1.257 6.925c0 11.046 8.954 20 20 20s20-8.954 20-20c0-8.89-5.804-16.415-13.826-19.018z" opacity="1" data-original="#ffffff" class=""></path><circle cx="339" cy="331.023" r="20" fill="#ffffff" opacity="1" data-original="#ffffff" class=""></circle><path fill="#05e39c" d="M460.599 48.977H269.401C241.013 48.977 218 71.99 218 100.378v28.479h24.599c27.791 0 50.401 22.61 50.401 50.401v67.718h124.893l28.736 28.736c4.934 4.934 13.372 1.44 13.372-5.539v-23.197h.599c28.388 0 51.401-23.013 51.401-51.401v-95.198c-.001-28.387-23.014-51.4-51.402-51.4z" opacity="1" data-original="#05e39c" class=""></path><path fill="#0ed290" d="M242.599 128.857A50.066 50.066 0 0 1 266 134.64v-34.262c0-28.388 23.013-51.401 51.401-51.401h-48C241.013 48.977 218 71.99 218 100.378v28.479z" opacity="1" data-original="#0ed290" class=""></path><g fill="#fff"><path d="M394 101.237H274a3 3 0 0 0-3 3v9a3 3 0 0 0 3 3h120a3 3 0 0 0 3-3v-9a3 3 0 0 0-3-3zM412 104.237v9a3 3 0 0 0 3 3h41a3 3 0 0 0 3-3v-9a3 3 0 0 0-3-3h-41a3 3 0 0 0-3 3zM344 140.477h-69.249a50.75 50.75 0 0 1 12.271 15H344a3 3 0 0 0 3-3v-9a3 3 0 0 0-3-3zM362 143.477v9a3 3 0 0 0 3 3h91a3 3 0 0 0 3-3v-9a3 3 0 0 0-3-3h-91a3 3 0 0 0-3 3zM409 179.718h-68.04a3 3 0 0 0-3 3v9a3 3 0 0 0 3 3H409a3 3 0 0 0 3-3v-9a3 3 0 0 0-3-3zM427 182.718v9a3 3 0 0 0 3 3h26a3 3 0 0 0 3-3v-9a3 3 0 0 0-3-3h-26a3 3 0 0 0-3 3z" fill="#ffffff" opacity="1" data-original="#ffffff" class=""></path></g><path fill="#01c0fa" d="M242.599 127.857H51.401C23.013 127.857 0 150.87 0 179.259v95.198c0 28.388 23.013 51.401 51.401 51.401H107v24.003c0 6.979 8.437 10.473 13.372 5.539l29.541-29.541h92.686c28.388 0 51.401-23.013 51.401-51.401V179.26c0-28.39-23.013-51.403-51.401-51.403z" opacity="1" data-original="#01c0fa" class=""></path><path fill="#08a9f1" d="M48 274.456v-95.198c0-28.388 23.013-51.401 51.401-51.401h-48C23.013 127.857 0 150.87 0 179.259v95.198c0 28.388 23.013 51.401 51.401 51.401h48C71.013 325.857 48 302.844 48 274.456z" opacity="1" data-original="#08a9f1" class=""></path><g fill="#fff"><path d="M88 181.728H56a3 3 0 0 0-3 3v9a3 3 0 0 0 3 3h32a3 3 0 0 0 3-3v-9a3 3 0 0 0-3-3zM106 184.728v9a3 3 0 0 0 3 3h129a3 3 0 0 0 3-3v-9a3 3 0 0 0-3-3H109a3 3 0 0 0-3 3zM156 220.968H56a3 3 0 0 0-3 3v9a3 3 0 0 0 3 3h100a3 3 0 0 0 3-3v-9a3 3 0 0 0-3-3zM174 223.968v9a3 3 0 0 0 3 3h61a3 3 0 0 0 3-3v-9a3 3 0 0 0-3-3h-61a3 3 0 0 0-3 3zM115 260.208H56a3 3 0 0 0-3 3v9a3 3 0 0 0 3 3h59a3 3 0 0 0 3-3v-9a3 3 0 0 0-3-3zM133 263.208v9a3 3 0 0 0 3 3h35.04a3 3 0 0 0 3-3v-9a3 3 0 0 0-3-3H136a3 3 0 0 0-3 3z" fill="#ffffff" opacity="1" data-original="#ffffff" class=""></path></g></g></svg>