<svg xmlns="http://www.w3.org/2000/svg" version="1.1" xmlns:xlink="http://www.w3.org/1999/xlink" width="512" height="512" x="0" y="0" viewBox="0 0 100 100" style="enable-background:new 0 0 512 512" xml:space="preserve" class=""><g><path fill="#2698d1" d="M74.81 67.692v7.542a4.869 4.869 0 0 1-4.868 4.867h-57.47a4.869 4.869 0 0 1-4.867-4.867v-7.542c0-12.038 9.763-21.8 21.8-21.8H53.01c12.038 0 21.8 9.762 21.8 21.8z" opacity="1" data-original="#2698d1"></path><path d="M15.708 69.254V80.1h3.843l-2.823-10.976c-.152-.59-1.02-.48-1.02.129z" opacity="1" fill="#00000010" data-original="#00000010" class=""></path><path fill="#e2bc93" d="M51.197 47.705c0 4.478-4.47 8.112-9.99 8.112-5.52 0-9.989-3.634-9.989-8.112 0-.626.082-1.233.254-1.813h19.47c.173.58.255 1.187.255 1.813z" opacity="1" data-original="#e2bc93"></path><path fill="#726f6d" d="M60.642 20.593v7.152a7.357 7.357 0 0 1-7.36 7.36H29.132a7.357 7.357 0 0 1-7.36-7.36v-7.152c0-9.998 8.104-18.093 18.093-18.093h2.683c9.989 0 18.093 8.095 18.093 18.093z" opacity="1" data-original="#726f6d" class=""></path><path fill="#ffdaab" d="M56.318 24.382v10.415c0 4.387-1.867 8.34-4.85 11.095a15.063 15.063 0 0 1-10.26 4.025h-.019a15.077 15.077 0 0 1-10.243-4.025 15.064 15.064 0 0 1-4.85-11.095V24.382c0-1.378.182-2.71.536-3.97a15.089 15.089 0 0 1 14.557-11.14h.018c4.17 0 7.95 1.685 10.687 4.423a15.051 15.051 0 0 1 4.206 8.158c.145.816.218 1.668.218 2.529z" opacity="1" data-original="#ffdaab"></path><path fill="#726f6d" d="m57.03 13.67 3.113 10.83c-3.896-2.045-6.823-4.641-7.98-8.247-6.41 3.676-18.692 4.566-29.931 4.044l2.31-8.405 4.726-5.353s20.272-.314 20.272 0 7.49 7.131 7.49 7.131z" opacity="1" data-original="#726f6d" class=""></path><path d="M74.81 67.692v7.542a4.869 4.869 0 0 1-4.868 4.867H41.189V2.5h1.36c9.989 0 18.093 8.095 18.093 18.093v7.152a7.357 7.357 0 0 1-4.324 6.707v.345c0 4.387-1.867 8.34-4.85 11.095h1.541c12.038 0 21.8 9.762 21.8 21.8z" opacity="1" fill="#00000010" data-original="#00000010" class=""></path><path d="M66.706 69.254V80.1h-3.842l2.823-10.976c.151-.59 1.02-.48 1.02.129z" opacity="1" fill="#00000010" data-original="#00000010" class=""></path><circle cx="74.808" cy="79.914" r="17.586" fill="#67bd45" opacity="1" data-original="#67bd45" class=""></circle><path fill="#ffffff" d="M77.994 88.503V83.1h5.404c.802 0 1.453-.65 1.453-1.453V78.18c0-.803-.65-1.453-1.453-1.453h-5.404v-5.404c0-.802-.65-1.452-1.452-1.452h-3.467c-.802 0-1.452.65-1.452 1.452v5.404h-5.404c-.802 0-1.453.65-1.453 1.453v3.466c0 .802.65 1.453 1.453 1.453h5.404v5.403c0 .802.65 1.453 1.452 1.453h3.467c.802 0 1.452-.65 1.452-1.453z" opacity="1" data-original="#ffffff"></path><path d="M92.395 79.914c0 9.711-7.875 17.586-17.587 17.586V62.327c9.712 0 17.587 7.875 17.587 17.587z" opacity="1" fill="#00000010" data-original="#00000010" class=""></path></g></svg>