<svg xmlns="http://www.w3.org/2000/svg" version="1.1" xmlns:xlink="http://www.w3.org/1999/xlink" width="512" height="512" x="0" y="0" viewBox="0 0 682.667 682.667" style="enable-background:new 0 0 512 512" xml:space="preserve" class="hovered-paths"><g><defs><clipPath id="a" clipPathUnits="userSpaceOnUse"><path d="M0 512h512V0H0Z" fill="#000000" opacity="1" data-original="#000000" class=""></path></clipPath></defs><g clip-path="url(#a)" transform="matrix(1.33333 0 0 -1.33333 0 682.667)"><path d="M0 0h-360c-8.284 0-15 6.716-15 15v482c0 8.284 6.716 15 15 15H0c8.284 0 15-6.716 15-15V15C15 6.716 8.284 0 0 0" style="fill-opacity:1;fill-rule:nonzero;stroke:none" transform="translate(383.5)" fill="#ebebeb" data-original="#e1f5ff" class="" opacity="1"></path><path d="M0 0h-180v-512H0c8.284 0 15 6.716 15 15v482C15-6.716 8.284 0 0 0" style="fill-opacity:1;fill-rule:nonzero;stroke:none" transform="translate(383.5 512)" fill="#dedede" data-original="#c8e1f5" class="" opacity="1"></path><path d="M0 0h-140c-8.284 0-15 6.716-15 15v10c0 46.869 38.131 85 85 85s85-38.131 85-85V15C15 6.716 8.284 0 0 0" style="fill-opacity:1;fill-rule:nonzero;stroke:none" transform="translate(188.5 262)" fill="#008cfa" data-original="#ff823c" class="" opacity="1"></path><path d="M0 0c-30.327 0-55 24.673-55 55s24.673 55 55 55 55-24.673 55-55S30.327 0 0 0" style="fill-opacity:1;fill-rule:nonzero;stroke:none" transform="translate(118.5 342)" fill="#ffd0af" data-original="#ffd0af" class=""></path><path d="M0 0h-60c-8.284 0-15 6.716-15 15 0 8.284 6.716 15 15 15H0c8.284 0 15-6.716 15-15C15 6.716 8.284 0 0 0" style="fill-opacity:1;fill-rule:nonzero;stroke:none" transform="translate(323.5 397)" fill="#435569" data-original="#435569" class="hovered-path"></path><path d="M0 0h-60c-8.284 0-15 6.716-15 15 0 8.284 6.716 15 15 15H0c8.284 0 15-6.716 15-15C15 6.716 8.284 0 0 0" style="fill-opacity:1;fill-rule:nonzero;stroke:none" transform="translate(323.5 337)" fill="#435569" data-original="#435569" class="hovered-path"></path><path d="M0 0h-140c-8.284 0-15 6.716-15 15 0 8.284 6.716 15 15 15H0c8.284 0 15-6.716 15-15C15 6.716 8.284 0 0 0" style="fill-opacity:1;fill-rule:nonzero;stroke:none" transform="translate(188.5 150)" fill="#556e87" data-original="#556e87" class=""></path><path d="M0 0h-147.643c-8.284 0-15 6.716-15 15 0 8.284 6.716 15 15 15H0c8.284 0 15-6.716 15-15C15 6.716 8.284 0 0 0" style="fill-opacity:1;fill-rule:nonzero;stroke:none" transform="translate(196.143 90)" fill="#556e87" data-original="#556e87" class=""></path><path d="M0 0a14.948 14.948 0 0 1-2.255-2.889L-44.682-73.6a15 15 0 0 1 20.579-20.579l70.711 42.426a15.029 15.029 0 0 1 2.89 2.256L44.072-5.425z" style="fill-opacity:1;fill-rule:nonzero;stroke:none" transform="translate(237.477 186.475)" fill="#fff064" data-original="#fff064" class=""></path><path d="M0 0a14.995 14.995 0 0 1 18.15-2.096l70.71 42.427a14.993 14.993 0 0 1 2.89 2.255l-5.389 43.775z" style="fill-opacity:1;fill-rule:nonzero;stroke:none" transform="translate(195.225 94.39)" fill="#ffdc1e" data-original="#ffdc1e" class=""></path><path d="m0 0 127.279 127.279c5.858 5.859 5.858 15.356 0 21.214l-28.284 28.284c-5.858 5.858-15.355 5.858-21.214 0L-49.498 49.498v-.001z" style="fill-opacity:1;fill-rule:nonzero;stroke:none" transform="translate(286.975 136.644)" fill="#00afff" data-original="#00afff" class=""></path><path d="m0 0-137.886-137.886 24.749-24.749 127.28 127.28C20-29.497 20-20 14.143-14.142Z" style="fill-opacity:1;fill-rule:nonzero;stroke:none" transform="translate(400.111 299.278)" fill="#008cfa" data-original="#008cfa" class="" opacity="1"></path><path d="m0 0 42.427 42.427c5.858 5.857 15.355 5.857 21.213 0l28.285-28.284c5.857-5.859 5.857-15.356 0-21.214L49.498-49.497Z" style="fill-opacity:1;fill-rule:nonzero;stroke:none" transform="translate(364.756 313.42)" fill="#fff064" data-original="#fff064" class=""></path><path d="m0 0-53.033-53.033 24.749-24.749 42.426 42.427C20-29.498 20-20 14.142-14.143Z" style="fill-opacity:1;fill-rule:nonzero;stroke:none" transform="translate(442.538 341.705)" fill="#ffdc1e" data-original="#ffdc1e" class=""></path><path d="m0 0 42.427 42.427c5.857 5.857 15.355 5.857 21.213 0l28.284-28.284c5.858-5.859 5.858-15.356 0-21.214L49.498-49.497Z" style="fill-opacity:1;fill-rule:nonzero;stroke:none" transform="translate(407.183 355.847)" fill="#00afff" data-original="#00afff" class=""></path><path d="m0 0-53.033-53.033 24.748-24.748 42.427 42.426C20-29.497 20-20 14.142-14.142Z" style="fill-opacity:1;fill-rule:nonzero;stroke:none" transform="translate(484.965 384.13)" fill="#008cfa" data-original="#008cfa" class="" opacity="1"></path></g></g></svg>