<svg xmlns="http://www.w3.org/2000/svg" version="1.1" xmlns:xlink="http://www.w3.org/1999/xlink" width="512" height="512" stroke-width="4" stroke-linecap="round"  x="0" y="0" viewBox="0 0 512 512" style="enable-background:new 0 0 512 512" xml:space="preserve" class="">
  <g stroke="#AEBAC1" stroke-width="4">
    <path d="M437.76 195.421c14.561-14.261 23.04-33.742 23.04-54.621 0-42.346-34.45-76.8-76.8-76.8-13.992 0-27.758 3.846-39.825 11.125a8.54 8.54 0 0 0-2.9 11.717c2.433 4.038 7.683 5.325 11.717 2.9 9.408-5.675 20.125-8.675 31.008-8.675 32.933 0 59.733 26.796 59.733 59.733 0 20.283-10.158 38.979-27.208 50.037-14.317 9.392-32.467 12.1-49.042 7.379-4.483-1.292-9.25 1.325-10.55 5.858a8.538 8.538 0 0 0 5.867 10.55 77.026 77.026 0 0 0 21.2 2.975c13.418 0 26.388-3.66 37.903-10.27 43.806 15.873 73.03 57.232 73.03 104.137v42.667h-77.812c-6.044-56.996-41.902-106.872-94.205-130.555 16.644-16.946 26.95-40.138 26.95-65.711C349.867 106.108 307.758 64 256 64s-93.867 42.108-93.867 93.867c0 25.581 10.312 48.78 26.965 65.728-17.602 7.997-33.927 19.185-47.773 32.952-26.543 26.619-42.695 60.784-46.529 97.588H17.067v-42.667c0-29.55 11.542-57.412 32.467-78.425 11.519-11.446 25.543-20.178 40.643-25.666C101.694 213.96 114.625 217.6 128 217.6c7.167 0 14.3-1 21.2-2.975a8.54 8.54 0 0 0 5.867-10.55c-1.3-4.533-6.067-7.146-10.55-5.858-16.567 4.729-34.708 2.025-49.083-7.4-17.008-11.038-27.167-29.733-27.167-50.017 0-32.937 26.8-59.733 59.733-59.733 10.883 0 21.6 3 31.008 8.675a8.552 8.552 0 0 0 11.717-2.9c2.433-4.037 1.133-9.279-2.9-11.717C155.758 67.846 141.992 64 128 64c-42.35 0-76.8 34.454-76.8 76.8 0 20.863 8.465 40.329 22.984 54.577a129.985 129.985 0 0 0-36.717 25.59C13.308 245.233 0 277.371 0 311.467v51.2a8.53 8.53 0 0 0 8.533 8.533h85.333v68.267a8.53 8.53 0 0 0 8.533 8.533h307.2a8.53 8.53 0 0 0 8.533-8.533V371.2h85.333a8.53 8.53 0 0 0 8.533-8.533v-51.2c.002-50.455-29.32-95.339-74.238-116.046zM179.2 157.867c0-42.346 34.45-76.8 76.8-76.8 42.35 0 76.8 34.454 76.8 76.8s-34.45 76.8-76.8 76.8c-42.35 0-76.8-34.455-76.8-76.8zm221.867 273.066H110.933V371.2c0-38.692 15.083-75.129 42.45-102.579 14.417-14.34 31.895-25.463 50.634-32.659 14.895 9.947 32.767 15.771 51.983 15.771 19.248 0 37.151-5.841 52.06-15.818 55.778 21.431 93.007 75.205 93.007 135.285v59.733z" fill="#AEBAC1" opacity="1" data-original="#AEBAC1" class=""></path>
  </g>
</svg>
