<svg xmlns="http://www.w3.org/2000/svg" version="1.1" xmlns:xlink="http://www.w3.org/1999/xlink" width="512" height="512" x="0" y="0" viewBox="0 0 36 36" style="enable-background:new 0 0 512 512" xml:space="preserve" class=""><g><g fill-rule="evenodd"><path fill="#003ca3" d="m22.38 25.1 3.73 3.18A4.54 4.54 0 0 1 22.57 30h-9.79l-4.4 3.77a1.17 1.17 0 0 1-1.22.17 1.14 1.14 0 0 1-.66-1V30A4.49 4.49 0 0 1 2 25.46V13.71a4.57 4.57 0 0 1 4.57-4.57v9.1a6.86 6.86 0 0 0 6.86 6.86z" opacity="1" data-original="#003ca3" class=""></path><path fill="#2575fc" d="M29.43 2h-16a4.57 4.57 0 0 0-4.57 4.57v11.67a4.58 4.58 0 0 0 4.57 4.57h9.79l4.4 3.77a1.15 1.15 0 0 0 1.89-.87v-2.9A4.49 4.49 0 0 0 34 18.32V6.57A4.57 4.57 0 0 0 29.43 2zM18 13.43h-2.29v-2.29H18zm4.57 0h-2.28v-2.29h2.29zm4.57 0h-2.28v-2.29h2.29z" opacity="1" data-original="#2575fc" class=""></path></g></g></svg>